<svg width="375" height="796" fill="none" xmlns="http://www.w3.org/2000/svg"><path fill="url(#a)" d="M0 0h375v659H0z"/><path fill-rule="evenodd" clip-rule="evenodd" d="M-51 795.721c48.59-56.313 137.22-93.997 238.5-93.997 101.281 0 189.91 37.684 238.5 93.997V659H-51v136.721z" fill="url(#b)"/><rect x="284.298" y="246.172" width="89.01" height="301.775" rx="44.505" transform="rotate(-38.669 284.298 246.172)" fill="url(#c)" fill-opacity=".32"/><rect x="10.614" y="90.615" width="89.01" height="301.775" rx="44.505" transform="rotate(-38.669 10.614 90.615)" fill="#7373FF" fill-opacity=".32"/><rect x="124" y="428.615" width="89.01" height="301.775" rx="44.505" transform="rotate(-38.669 124 428.615)" fill="#7373FF" fill-opacity=".32"/><rect x="-118" y="390.479" width="89.01" height="301.775" rx="44.505" transform="rotate(-38.669 -118 390.479)" fill="#7373FF" fill-opacity=".32"/><defs><linearGradient id="a" x1="241.875" y1="558.796" x2="511.519" y2="482.503" gradientUnits="userSpaceOnUse"><stop stop-color="#6B50FF"/><stop offset="1" stop-color="#A145FF"/></linearGradient><linearGradient id="b" x1="426" y1="608.5" x2="321.988" y2="606.447" gradientUnits="userSpaceOnUse"><stop stop-color="#7E55FF"/><stop offset="1" stop-color="#6B50FF"/></linearGradient><linearGradient id="c" x1="328.803" y1="246.172" x2="344.277" y2="528.332" gradientUnits="userSpaceOnUse"><stop offset=".236" stop-color="#7373FF"/><stop offset="1" stop-color="#7373FF" stop-opacity="0"/></linearGradient></defs></svg>